# xmcd CD database file
#
# Track frame offsets:
#	150
#	15447
#	33945
#	51760
#	66275
#	83255
#	100640
#	119700
#	135292
#	153500
#	169205
#
# Disc length: 2490 seconds
#
# Revision: 0
# Processed by: cddbd v1.5.1PL0 Copyright (c) Steve Scherf et al.
# Submitted via: CDex 1.51
#
DISCID=7e09b80b
DTITLE=portable rock - Q.T and 1
DYEAR=1900
DGENRE=New Age
TTITLE0=CINEMIC LOVE
TTITLE1=素足の恋人
TTITLE2=アイドル
TTITLE3=Escape From Whisper
TTITLE4=B.B
TTITLE5=春して、恋して、見つめて、キスして
TTITLE6=Tu Tu
TTITLE7=スパイがいっぱい Everybody is a spy
TTITLE8=Golem Plka
TTITLE9=Kiss The Fish
TTITLE10=夏の日々
EXTD=
EXTT0=
EXTT1=
EXTT2=
EXTT3=
EXTT4=
EXTT5=
EXTT6=
EXTT7=
EXTT8=
EXTT9=
EXTT10=
PLAYORDER=
